Coordinates
version=1
nRows=60
nColumns=12
inDegrees=yes

Units are S.I. units (second, meters, Newtons, ...)
Angles are in degrees

endheader
time	SC_y	SC_z	SC_x	AC_y	AC_z	AC_x	GH_y	GH_z	GH_yy	EL_x	PS_y
       0.0              -26.16          28.23          71.21           51.4         -6.533          1.941          27.17          32.55         -127.0          114.5          125.0
   0.04929              -26.16          28.23          71.22           51.4         -6.534           1.94          27.15          32.55         -127.0          114.5          125.0
   0.09857              -26.16          28.23          71.22           51.4         -6.534           1.94          27.14          32.56         -127.0          114.5          125.0
    0.1479              -26.16          28.23          71.22           51.4         -6.535          1.939          27.12          32.56         -127.0          114.5          125.0
    0.1971              -26.17          28.22          71.22          51.39         -6.536          1.939           27.1          32.56         -127.0          114.5          125.0
    0.2464              -26.17          28.22          71.22          51.39         -6.536          1.938          27.07          32.57         -127.0          114.5          125.0
    0.2957              -26.17          28.22          71.22          51.39         -6.537          1.938          27.05          32.57         -127.0          114.4          124.9
     0.345              -26.17          28.22          71.23          51.38         -6.538          1.937          27.03          32.58         -126.9          114.4          124.9
    0.3943              -26.18          28.22          71.23          51.38         -6.539          1.936           27.0          32.58         -126.9          114.4          124.9
    0.4436              -26.18          28.22          71.23          51.38          -6.54          1.936          26.97          32.59         -126.9          114.4          124.9
    0.4929              -26.18          28.21          71.24          51.37         -6.541          1.935          26.94           32.6         -126.9          114.4          124.9
    0.5421              -26.19          28.21          71.24          51.37         -6.543          1.934          26.91           32.6         -126.9          114.4          124.9
    0.5914              -26.19          28.21          71.24          51.36         -6.544          1.933          26.87          32.61         -126.8          114.4          124.8
    0.6407              -26.19          28.21          71.24          51.36         -6.545          1.932          26.83          32.62         -126.8          114.4          124.8
      0.69               -26.2          28.21          71.25          51.35         -6.547          1.931          26.79          32.63         -126.8          114.4          124.8
    0.7393               -26.2           28.2          71.25          51.35         -6.549           1.93          26.74          32.64         -126.7          114.4          124.8
    0.7886              -26.21           28.2          71.26          51.34          -6.55          1.929          26.69          32.65         -126.7          114.4          124.7
    0.8379              -26.21           28.2          71.26          51.33         -6.552          1.928          26.64          32.66         -126.7          114.4          124.7
    0.8872              -26.22          28.19          71.27          51.33         -6.555          1.926          26.58          32.67         -126.6          114.4          124.7
    0.9364              -26.23          28.19          71.27          51.32         -6.557          1.925          26.52          32.68         -126.6          114.4          124.6
    0.9857              -26.23          28.18          71.28          51.31         -6.559          1.923          26.45           32.7         -126.5          114.4          124.6
     1.035              -26.24          28.18          71.29           51.3         -6.562          1.921          26.37          32.71         -126.5          114.4          124.6
     1.084              -26.25          28.17          71.29          51.29         -6.565          1.919          26.28          32.73         -126.4          114.4          124.5
     1.134              -26.26          28.17           71.3          51.27         -6.569          1.917          26.19          32.75         -126.3          114.4          124.5
     1.183              -26.27          28.16          71.31          51.26         -6.573          1.914          26.08          32.77         -126.3          114.4          124.4
     1.232              -26.29          28.15          71.32          51.24         -6.577          1.911          25.97          32.79         -126.2          114.4          124.3
     1.281               -26.3          28.15          71.34          51.23         -6.582          1.908          25.83          32.82         -126.1          114.4          124.3
     1.331              -26.32          28.14          71.35          51.21         -6.587          1.904          25.68          32.85         -126.0          114.3          124.2
      1.38              -26.33          28.13          71.36          51.18         -6.594            1.9          25.52          32.89         -125.9          114.3          124.1
     1.429              -26.36          28.12          71.38          51.16         -6.601          1.896          25.33          32.92         -125.7          114.3          124.0
     1.479              -26.38           28.1           71.4          51.13         -6.608           1.89          25.11          32.97         -125.6          114.3          123.9
     1.528              -26.41          28.09          71.42           51.1         -6.618          1.884          24.86          33.02         -125.4          114.3          123.7
     1.577              -26.44          28.07          71.45          51.06         -6.628          1.877          24.57          33.08         -125.2          114.3          123.6
     1.626              -26.47          28.05          71.48          51.01          -6.64          1.869          24.24          33.15         -125.0          114.2          123.4
     1.676              -26.51          28.02          71.52          50.96         -6.655          1.859          23.84          33.22         -124.7          114.2          123.2
     1.725              -26.56           28.0          71.56           50.9         -6.672          1.848          23.38          33.32         -124.4          114.2          122.9
     1.774              -26.62          27.96          71.61          50.83         -6.692          1.835          22.83          33.43         -124.0          114.1          122.6
     1.824              -26.69          27.92          71.67          50.74         -6.716          1.819          22.17          33.56         -123.5          114.1          122.2
     1.873              -26.78          27.87          71.74          50.63         -6.745          1.799          21.38          33.73         -122.9          114.0          121.8
     1.922              -26.88          27.81          71.83           50.5         -6.781          1.775           20.4          33.92         -122.2          113.9          121.3
     1.971              -27.01          27.74          71.94          50.35         -6.825          1.746           19.2          34.17         -121.4          113.9          120.6
     2.021              -27.17          27.65          72.08          50.15          -6.88          1.709          17.71          34.47         -120.3          113.7          119.8
      2.07              -27.37          27.53          72.25           49.9         -6.949          1.663          15.82          34.85         -119.0          113.6          118.7
     2.119              -27.63          27.38          72.47          49.58         -7.037          1.605          13.42          35.34         -117.3          113.4          117.4
     2.169              -27.96          27.19          72.75          49.17         -7.149           1.53          10.35          35.96         -115.1          113.2          115.7
     2.218              -28.38          26.95           73.1          48.65         -7.293          1.434          6.416          36.76         -112.3          112.9          113.5
     2.267              -28.92          26.64          73.56          47.98         -7.478          1.311          1.385          37.78         -108.7          112.5          110.7
     2.316               -29.6          26.25          74.14          47.14         -7.709          1.156          -4.94          39.07         -104.2          112.0          107.2
     2.366              -30.43          25.78          74.84          46.11         -7.992         0.9677         -12.65          40.63         -98.78          111.4          102.9
     2.415              -31.39          25.23          75.65          44.93         -8.319         0.7494         -21.58          42.45         -92.44          110.8          97.94
     2.464              -32.43          24.63          76.53          43.64         -8.673          0.513         -31.26          44.41         -85.57          110.0          92.57
     2.514              -33.46          24.03          77.41          42.35         -9.028         0.2766         -40.93          46.37          -78.7          109.3           87.2
     2.563              -34.42          23.48          78.23          41.17         -9.355        0.05827         -49.87          48.19         -72.36          108.6          82.24
     2.612              -35.25          23.01          78.93          40.14         -9.638        -0.1301         -57.58          49.75         -66.89          108.0          77.96
     2.661              -35.93          22.62          79.51           39.3         -9.869        -0.2846          -63.9          51.04          -62.4          107.6          74.45
     2.711              -36.47          22.31          79.96          38.63         -10.05        -0.4076         -68.93          52.06         -58.83          107.2          71.66
      2.76              -36.89          22.07          80.32          38.11          -10.2        -0.5038         -72.87          52.86         -56.03          106.9          69.47
     2.809              -37.22          21.88           80.6           37.7         -10.31        -0.5788         -75.94          53.48         -53.85          106.6          67.77
     2.859              -37.48          21.73          80.82          37.38          -10.4        -0.6374         -78.34          53.97         -52.15          106.5          66.44
     2.908              -37.68          21.61          80.99          37.13         -10.47        -0.6835         -80.22          54.35         -50.81          106.3          65.39
